<svg xmlns="http://www.w3.org/2000/svg" viewBox="0 0 132.16 132.16"><defs><style>.cls-1{fill:#2c5da8;}</style></defs><g id="Layer_2" data-name="Layer 2"><g id="Round_Colored" data-name="Round Colored"><path class="cls-1" d="M66.08,0a66.08,66.08,0,1,0,66.08,66.08A66.09,66.09,0,0,0,66.08,0ZM87.29,38.36c-2.44,0-4.87,0-7.31,0a17.5,17.5,0,0,0-3.31.39,4.63,4.63,0,0,0-3.74,3.91,13.52,13.52,0,0,0-.27,2.54c0,3.12,0,6.24,0,9.36,0,.09,0,.19,0,.33h14c.59,0,.6,0,.53.56-.32,2.45-.65,4.9-1,7.35-.27,2-.52,4.1-.77,6.15-.09.79-.07.79-.86.79h-12v37.07c0,.3,0,.6,0,.9H57.19c0-.2,0-.41,0-.61q0-18.45,0-36.89v-.47H44.92c-.54,0-.54,0-.54-.53q0-6.9,0-13.81c0-.42.12-.52.53-.52H57.22v-.45c0-3.82,0-7.65,0-11.48a20.9,20.9,0,0,1,2-8.85A16,16,0,0,1,67.81,26a20.23,20.23,0,0,1,8.12-1.54c3.21.05,6.42.19,9.63.31.6,0,1.19.12,1.79.15.33,0,.45.14.44.48,0,1.9,0,3.81,0,5.72,0,2.24,0,4.49,0,6.74C87.8,38.24,87.69,38.36,87.29,38.36Z"/></g></g></svg>