<svg xmlns="http://www.w3.org/2000/svg" viewBox="0 0 135.89 135.89"><defs><style>.cls-1{fill:none;stroke:#e53a40;stroke-miterlimit:10;stroke-width:3.73px;}.cls-2{fill:#e53a40;}</style></defs><g id="Layer_2" data-name="Layer 2"><g id="Round_Black_Transparent" data-name="Round Black Transparent"><circle class="cls-1" cx="67.95" cy="67.95" r="66.08" transform="translate(-28.14 67.95) rotate(-45)"/><path class="cls-2" d="M59.06,109.58c0-.21,0-.41,0-.61V71.6H46.79c-.55,0-.55,0-.55-.52,0-4.6,0-9.21,0-13.81,0-.42.13-.53.54-.52H59.08v-.44c0-3.83,0-7.65,0-11.48a21,21,0,0,1,2-8.85,16.11,16.11,0,0,1,8.58-8.12,20.24,20.24,0,0,1,8.13-1.54c3.21.05,6.42.19,9.63.31.59,0,1.19.12,1.79.15.33,0,.44.14.44.47,0,1.91,0,3.81,0,5.72,0,2.25,0,4.5,0,6.74,0,.39-.11.51-.5.51-2.44,0-4.88,0-7.32,0a17.58,17.58,0,0,0-3.31.38,4.63,4.63,0,0,0-3.73,3.91,12.92,12.92,0,0,0-.27,2.55c0,3.12,0,6.24,0,9.36,0,.09,0,.18,0,.32h14c.59,0,.6,0,.52.56-.31,2.46-.64,4.91-1,7.36-.26,2-.52,4.1-.76,6.15-.1.78-.08.78-.87.78h-12v37.08c0,.3,0,.6,0,.9Z"/></g></g></svg>