<svg xmlns="http://www.w3.org/2000/svg" viewBox="0 0 135.89 135.89"><defs><style>.cls-1{fill:none;stroke:#3c3c3b;stroke-miterlimit:10;stroke-width:3.73px;}.cls-2{fill:#3c3c3b;}</style></defs><g id="Layer_2" data-name="Layer 2"><g id="Round_Black_Transparent" data-name="Round Black Transparent"><circle class="cls-1" cx="67.95" cy="67.95" r="66.08" transform="matrix(0.26, -0.96, 0.96, 0.26, -15.45, 115.67)"/><path class="cls-2" d="M33.44,56H48.23v47.59H33.44Zm7.4-23.66a8.58,8.58,0,1,1-8.58,8.58,8.58,8.58,0,0,1,8.58-8.58"/><path class="cls-2" d="M57.51,56H71.7v6.5h.19c2-3.74,6.8-7.68,14-7.68,15,0,17.74,9.85,17.74,22.67v26.1H88.85V80.43c0-5.52-.1-12.62-7.69-12.62s-8.87,6-8.87,12.22v23.54H57.51Z"/></g></g></svg>