<svg xmlns="http://www.w3.org/2000/svg" viewBox="0 0 132.16 132.16"><defs><style>.cls-1{fill:#3ca8e0;}</style></defs><g id="Layer_2" data-name="Layer 2"><g id="Round_Colored" data-name="Round Colored"><path class="cls-1" d="M66.08,0a66.08,66.08,0,1,0,66.08,66.08A66.09,66.09,0,0,0,66.08,0ZM99.19,49.1c0,.73,0,1.47,0,2.21,0,22.57-17.18,48.6-48.6,48.6a48.33,48.33,0,0,1-26.19-7.67,34.48,34.48,0,0,0,25.29-7.07,17.12,17.12,0,0,1-16-11.87A17.05,17.05,0,0,0,41.5,73,17.09,17.09,0,0,1,27.79,56.26a1.7,1.7,0,0,1,0-.22,17,17,0,0,0,7.73,2.14,17.09,17.09,0,0,1-5.28-22.81A48.46,48.46,0,0,0,65.46,53.22,16.63,16.63,0,0,1,65,49.33,17.09,17.09,0,0,1,94.56,37.64a34.16,34.16,0,0,0,10.85-4.14A17.11,17.11,0,0,1,97.9,43a33.94,33.94,0,0,0,9.81-2.69A34.76,34.76,0,0,1,99.19,49.1Z"/></g></g></svg>