<svg xmlns="http://www.w3.org/2000/svg" viewBox="0 0 135.89 135.89"><defs><style>.cls-1{fill:none;stroke:#3c3c3b;stroke-miterlimit:10;stroke-width:3.73px;}.cls-2{fill:#3c3c3b;}</style></defs><g id="Layer_2" data-name="Layer 2"><g id="Round_Black_Transparent" data-name="Round Black Transparent"><circle class="cls-1" cx="67.95" cy="67.95" r="66.08" transform="translate(-28.14 67.95) rotate(-45)"/><path class="cls-2" d="M109.58,42.12a34.11,34.11,0,0,1-9.81,2.69,17.16,17.16,0,0,0,7.51-9.45,34.26,34.26,0,0,1-10.85,4.15A17.1,17.1,0,0,0,67.32,55.09,48.48,48.48,0,0,1,32.11,37.24,17.11,17.11,0,0,0,37.4,60.05a17,17,0,0,1-7.74-2.14v.21a17.09,17.09,0,0,0,13.7,16.75,17.24,17.24,0,0,1-7.71.3A17.1,17.1,0,0,0,51.61,87,34.48,34.48,0,0,1,26.32,94.1a48.28,48.28,0,0,0,26.18,7.68c31.42,0,48.6-26,48.6-48.6,0-.74,0-1.48,0-2.21A34.68,34.68,0,0,0,109.58,42.12Z"/></g></g></svg>