<svg xmlns="http://www.w3.org/2000/svg" viewBox="0 0 132.16 132.16"><defs><style>.cls-1{fill:#3aaa35;}</style></defs><g id="Layer_2" data-name="Layer 2"><g id="Round_Colored" data-name="Round Colored"><path class="cls-1" d="M66.08,0a66.08,66.08,0,1,0,66.08,66.08A66.09,66.09,0,0,0,66.08,0Zm.41,106.33a41.48,41.48,0,0,1-19.72-5.06l-22,6.44,6.76-21.07s-5.92-10-5.92-21.25a40.93,40.93,0,1,1,40.92,40.94Z"/><path class="cls-1" d="M66.49,31A34.38,34.38,0,0,0,32.11,65.39c0,11.12,6.71,20.39,6.71,20.39L34.44,98l13.11-3.92a37.54,37.54,0,0,0,18.94,5.7,34.39,34.39,0,1,0,0-68.77ZM85.83,82c-2.44,2.62-7.61,3.84-10,3.15S65.24,82.37,60,77.45s-9.56-10.1-11.3-13.92S47,57.44,47.1,56.37s.66-6,4-8.14a4.83,4.83,0,0,1,1.69-.7H56a1.82,1.82,0,0,1,1.26,1c.4.9,3.12,7.29,3.32,7.78a2.7,2.7,0,0,1-.11,2.8c-.85,1.1-2.62,3.14-2.62,3.14a1.26,1.26,0,0,0-.1,1.63,33,33,0,0,0,5.54,6.83,26.44,26.44,0,0,0,7.93,4.9c1.7.57,2.08-.18,2.73-1s2.69-3.42,2.69-3.42a1.61,1.61,0,0,1,2.08-.39c1.38.63,8.08,3.88,8.08,3.88a1.09,1.09,0,0,1,.87,1.05A7.35,7.35,0,0,1,85.83,82Z"/></g></g></svg>