<svg xmlns="http://www.w3.org/2000/svg" viewBox="0 0 135.89 135.89"><defs><style>.cls-1{fill:none;stroke:#3c3c3b;stroke-miterlimit:10;stroke-width:3.73px;}.cls-2{fill:#3c3c3b;}</style></defs><g id="Layer_2" data-name="Layer 2"><g id="Round_Black_Transparent" data-name="Round Black Transparent"><circle class="cls-1" cx="67.95" cy="67.95" r="66.08" transform="translate(-28.14 67.95) rotate(-45)"/><path class="cls-2" d="M68.36,26.32A40.93,40.93,0,0,0,27.43,67.26c0,11.21,5.93,21.24,5.93,21.24l-6.77,21.08,22-6.45a41.44,41.44,0,0,0,19.73,5.07,40.94,40.94,0,0,0,0-81.88Zm0,75.32a37.6,37.6,0,0,1-19-5.69L36.3,99.87l4.38-12.22S34,78.37,34,67.26a34.39,34.39,0,1,1,34.39,34.38Z"/><path class="cls-2" d="M88.65,76.57s-6.71-3.25-8.09-3.88a1.61,1.61,0,0,0-2.08.4s-2,2.57-2.68,3.41-1,1.59-2.74,1a26.28,26.28,0,0,1-7.92-4.91A32.67,32.67,0,0,1,59.6,65.8a1.26,1.26,0,0,1,.09-1.64s1.77-2,2.62-3.13a2.69,2.69,0,0,0,.12-2.8c-.2-.5-2.92-6.89-3.32-7.79a1.84,1.84,0,0,0-1.26-1H54.62a4.84,4.84,0,0,0-1.68.7c-3.31,2.12-3.88,7.08-4,8.15s-.2,3.33,1.55,7.15,6,9,11.3,13.93,13.37,7,15.82,7.72,7.62-.53,10-3.15a7.34,7.34,0,0,0,1.82-6.27A1.08,1.08,0,0,0,88.65,76.57Z"/></g></g></svg>