<?xml version="1.0" encoding="utf-8"?>
<!-- Generator: Adobe Illustrator 24.1.0, SVG Export Plug-In . SVG Version: 6.00 Build 0)  -->
<svg version="1.1" id="Layer_1" xmlns="http://www.w3.org/2000/svg" xmlns:xlink="http://www.w3.org/1999/xlink" x="0px" y="0px"
	 viewBox="0 0 512 512" style="enable-background:new 0 0 512 512;" xml:space="preserve">
<style type="text/css">
	.st0{fill:#8BD8ED;}
</style>
<rect class="st0" width="512" height="512"/>
<g>
	<g>
		<path d="M107.3,202.5H53.5v-37.1h151.8v37.1h-53.8V361h-44.2V202.5z"/>
		<path d="M223.2,336.3l25.4-30.3c13.9,12.1,31.9,20.4,48,20.4c18.5,0,27.5-7.3,27.5-18.9c0-12.3-11.1-16.3-28.2-23.3l-25.4-10.8
			c-20.3-8.2-39.5-24.9-39.5-53.3c0-32.4,28.9-58.3,69.6-58.3c22.5,0,46.1,8.9,62.9,25.6l-22.3,27.9c-12.9-9.9-25.1-15.3-40.6-15.3
			c-15.2,0-24.9,6.3-24.9,17.5c0,12,12.8,16.4,29.9,23.1l24.9,10.1c23.9,9.7,38.8,25.6,38.8,53.2c0,32.5-27.1,60.6-73.7,60.6
			C270.2,364.6,243.2,355,223.2,336.3z"/>
		<path d="M393,231c30-24.7,51.4-43.7,51.4-58.1c0-11.6-6.4-18.5-17.1-18.5c-7.9,0-14.7,5.5-21.3,14.3l-18.4-16.8
			c12-15.8,26.8-24.1,44.7-24.1c25.9,0,43.3,14.5,43.3,39.6c0,19-14.7,35.6-31.2,54h35.4v27.1H393V231z"/>
	</g>
</g>
</svg>
